# xmcd
#
# Track frame offsets: 
#        150
#        11473
#        26155
#        41236
#        55625
#        68181
#        82170
#        95562
#        109974
#        124364
#
# Disc length: 1888 seconds
#
# Revision: 0
# Processed by: cddbd v1.5.2PL0 Copyright (c) Steve Scherf et al.
# Submitted via: ExactAudioCopyFreeDBPlugin 1.0
#
DISCID=8b075e0a
DTITLE=Josh Thompson - Turn It Up
DYEAR=2014
DGENRE=Country
TTITLE0=Down For A Get Down
TTITLE1=Turn It Up
TTITLE2=Cold Beer With Your Name On It
TTITLE3=Wanted Me Gone
TTITLE4=Hillbilly Limo
TTITLE5=A Little Memory
TTITLE6=Drink Drink Drink
TTITLE7=Left This Town
TTITLE8=Firebird
TTITLE9=Hank Crankin' People
EXTD=
EXTT0=
EXTT1=
EXTT2=
EXTT3=
EXTT4=
EXTT5=
EXTT6=
EXTT7=
EXTT8=
EXTT9=
PLAYORDER=
